<?xml version="1.0" encoding="UTF-8"?>
<svg id="a" data-name="Layer 1" xmlns="http://www.w3.org/2000/svg" viewBox="0 0 1024 1024">
  <path d="M888.12,379.96c0-207.64-168.32-375.96-375.96-375.96S136.2,172.33,136.2,379.96c0,0-40.25,237.53,375.96,640.03,0,0,396.08-362.94,375.96-640.03ZM512.16,121.68c148.88,0,269.56,120.69,269.56,269.56s-120.69,269.56-269.56,269.56-269.56-120.69-269.56-269.56S363.28,121.68,512.16,121.68Z" style="fill: #231f20; stroke-width: 0px;"/>
  <path d="M507.22,422.65v114.34h-97.97V222.32h134.39c33.5,0,58.97,3.84,76.42,11.53,17.44,7.69,31.27,19.44,41.49,35.27,10.22,15.83,15.33,33.58,15.33,53.25,0,29.97-10.45,54.17-31.35,72.61-20.9,18.44-48.79,27.66-83.68,27.66h-54.63ZM505.83,355.1h32.27c28.43,0,42.65-10.45,42.65-31.35,0-19.67-13.14-29.51-39.42-29.51h-35.5v60.86Z" style="fill: #231f20; stroke-width: 0px;"/>
</svg>