<?xml version="1.0" encoding="UTF-8"?>
<svg xmlns="http://www.w3.org/2000/svg" version="1.1" width="1000" height="1000" viewBox="0 0 1000 1000"><rect x="0" y="0" width="1000" height="1000" fill="#ffffff"/><g transform="scale(18.868)"><g transform="translate(2,2)"><path fill-rule="evenodd" d="M9 0L9 1L8 1L8 2L9 2L9 1L11 1L11 0ZM13 0L13 2L10 2L10 3L8 3L8 4L9 4L9 5L8 5L8 7L9 7L9 8L6 8L6 9L5 9L5 8L0 8L0 9L1 9L1 10L0 10L0 11L1 11L1 12L0 12L0 13L1 13L1 14L0 14L0 16L1 16L1 15L2 15L2 13L3 13L3 12L4 12L4 13L5 13L5 14L4 14L4 16L6 16L6 17L7 17L7 18L6 18L6 19L10 19L10 18L12 18L12 16L13 16L13 15L12 15L12 16L10 16L10 10L9 10L9 13L8 13L8 14L6 14L6 13L7 13L7 12L6 12L6 11L7 11L7 10L8 10L8 9L9 9L9 8L10 8L10 9L12 9L12 10L11 10L11 11L12 11L12 12L11 12L11 13L12 13L12 14L14 14L14 13L13 13L13 12L14 12L14 11L13 11L13 10L15 10L15 11L16 11L16 9L21 9L21 8L19 8L19 4L18 4L18 3L17 3L17 2L18 2L18 1L19 1L19 3L21 3L21 6L20 6L20 7L21 7L21 6L22 6L22 9L24 9L24 10L23 10L23 12L22 12L22 11L21 11L21 10L18 10L18 11L17 11L17 12L18 12L18 13L16 13L16 12L15 12L15 13L16 13L16 14L15 14L15 15L14 15L14 16L15 16L15 15L16 15L16 17L19 17L19 19L21 19L21 20L19 20L19 21L18 21L18 20L17 20L17 21L18 21L18 22L17 22L17 23L18 23L18 24L16 24L16 23L15 23L15 25L13 25L13 24L14 24L14 22L13 22L13 23L11 23L11 21L12 21L12 19L11 19L11 21L10 21L10 23L11 23L11 26L12 26L12 27L11 27L11 28L12 28L12 29L13 29L13 30L11 30L11 29L9 29L9 28L8 28L8 27L10 27L10 25L9 25L9 21L7 21L7 20L5 20L5 19L4 19L4 18L5 18L5 17L4 17L4 18L3 18L3 19L4 19L4 20L5 20L5 22L3 22L3 23L1 23L1 22L2 22L2 21L3 21L3 20L2 20L2 19L0 19L0 26L1 26L1 27L2 27L2 28L3 28L3 27L4 27L4 29L3 29L3 30L1 30L1 29L0 29L0 31L1 31L1 32L2 32L2 34L0 34L0 35L2 35L2 36L1 36L1 37L0 37L0 38L1 38L1 40L0 40L0 41L3 41L3 40L4 40L4 39L2 39L2 38L1 38L1 37L3 37L3 38L4 38L4 37L3 37L3 36L5 36L5 39L8 39L8 40L10 40L10 41L8 41L8 43L11 43L11 42L10 42L10 41L12 41L12 45L10 45L10 44L8 44L8 49L9 49L9 48L11 48L11 49L12 49L12 47L11 47L11 46L12 46L12 45L13 45L13 46L14 46L14 47L13 47L13 48L15 48L15 47L16 47L16 49L19 49L19 47L20 47L20 49L21 49L21 48L22 48L22 47L20 47L20 45L21 45L21 46L24 46L24 49L28 49L28 48L29 48L29 49L30 49L30 48L33 48L33 47L36 47L36 48L34 48L34 49L37 49L37 48L38 48L38 49L42 49L42 48L43 48L43 47L44 47L44 46L45 46L45 47L47 47L47 46L46 46L46 45L47 45L47 44L48 44L48 45L49 45L49 44L48 44L48 43L49 43L49 42L48 42L48 40L49 40L49 38L47 38L47 39L48 39L48 40L46 40L46 39L45 39L45 38L43 38L43 36L42 36L42 35L44 35L44 33L46 33L46 35L45 35L45 36L44 36L44 37L49 37L49 34L48 34L48 33L47 33L47 32L46 32L46 31L48 31L48 32L49 32L49 30L48 30L48 29L49 29L49 26L48 26L48 28L46 28L46 27L47 27L47 25L49 25L49 22L48 22L48 21L47 21L47 20L48 20L48 19L49 19L49 14L48 14L48 11L49 11L49 10L48 10L48 8L47 8L47 12L46 12L46 13L41 13L41 12L42 12L42 10L43 10L43 11L44 11L44 12L45 12L45 11L46 11L46 8L45 8L45 9L44 9L44 8L43 8L43 9L42 9L42 8L41 8L41 6L40 6L40 7L39 7L39 5L38 5L38 4L37 4L37 3L36 3L36 1L37 1L37 2L39 2L39 4L40 4L40 3L41 3L41 0L40 0L40 1L38 1L38 0L35 0L35 1L34 1L34 0L30 0L30 1L29 1L29 0L27 0L27 1L25 1L25 0L24 0L24 1L22 1L22 0L21 0L21 1L22 1L22 2L20 2L20 0L17 0L17 1L16 1L16 0ZM15 1L15 2L16 2L16 1ZM28 1L28 2L29 2L29 3L27 3L27 5L28 5L28 6L27 6L27 8L28 8L28 9L26 9L26 10L25 10L25 11L24 11L24 12L23 12L23 13L22 13L22 12L21 12L21 11L19 11L19 12L21 12L21 13L19 13L19 14L17 14L17 15L19 15L19 16L21 16L21 15L22 15L22 16L23 16L23 17L20 17L20 18L21 18L21 19L22 19L22 20L23 20L23 21L19 21L19 22L18 22L18 23L19 23L19 22L20 22L20 23L22 23L22 22L27 22L27 23L29 23L29 20L28 20L28 22L27 22L27 19L28 19L28 18L27 18L27 16L28 16L28 17L29 17L29 19L31 19L31 22L30 22L30 23L33 23L33 24L28 24L28 27L27 27L27 28L26 28L26 30L25 30L25 31L22 31L22 30L24 30L24 29L25 29L25 28L24 28L24 27L23 27L23 28L24 28L24 29L22 29L22 28L21 28L21 27L22 27L22 25L20 25L20 28L21 28L21 29L19 29L19 30L20 30L20 32L19 32L19 33L18 33L18 35L17 35L17 33L15 33L15 32L16 32L16 31L15 31L15 30L16 30L16 29L18 29L18 28L17 28L17 27L18 27L18 26L19 26L19 25L15 25L15 26L13 26L13 25L12 25L12 26L13 26L13 27L12 27L12 28L13 28L13 29L14 29L14 30L13 30L13 31L11 31L11 30L9 30L9 31L6 31L6 30L8 30L8 29L6 29L6 30L5 30L5 29L4 29L4 30L5 30L5 31L2 31L2 32L3 32L3 34L7 34L7 35L5 35L5 36L7 36L7 37L6 37L6 38L7 38L7 37L9 37L9 35L10 35L10 34L11 34L11 35L12 35L12 33L11 33L11 32L14 32L14 33L13 33L13 34L15 34L15 37L13 37L13 39L16 39L16 40L17 40L17 39L18 39L18 40L21 40L21 39L22 39L22 40L24 40L24 39L22 39L22 38L21 38L21 37L20 37L20 36L21 36L21 35L22 35L22 34L24 34L24 33L26 33L26 34L25 34L25 35L27 35L27 34L28 34L28 35L32 35L32 34L33 34L33 35L34 35L34 36L31 36L31 37L32 37L32 38L35 38L35 37L36 37L36 36L37 36L37 37L38 37L38 38L36 38L36 39L34 39L34 40L35 40L35 41L34 41L34 42L33 42L33 40L31 40L31 38L30 38L30 40L28 40L28 39L29 39L29 37L30 37L30 36L27 36L27 37L26 37L26 40L28 40L28 41L27 41L27 43L28 43L28 42L29 42L29 44L27 44L27 45L24 45L24 46L26 46L26 47L25 47L25 48L28 48L28 47L31 47L31 46L29 46L29 45L32 45L32 47L33 47L33 46L35 46L35 44L39 44L39 45L38 45L38 46L37 46L37 45L36 45L36 47L38 47L38 46L39 46L39 45L40 45L40 44L39 44L39 42L40 42L40 41L39 41L39 40L40 40L40 39L39 39L39 40L38 40L38 42L37 42L37 41L36 41L36 40L37 40L37 39L38 39L38 38L40 38L40 37L42 37L42 36L40 36L40 35L41 35L41 33L42 33L42 32L44 32L44 31L41 31L41 29L39 29L39 28L40 28L40 27L37 27L37 26L36 26L36 25L34 25L34 26L29 26L29 25L33 25L33 24L34 24L34 23L33 23L33 22L35 22L35 24L37 24L37 25L38 25L38 26L39 26L39 25L38 25L38 24L39 24L39 23L40 23L40 22L41 22L41 21L40 21L40 18L41 18L41 17L43 17L43 18L42 18L42 19L43 19L43 20L44 20L44 21L43 21L43 22L44 22L44 21L45 21L45 22L46 22L46 23L45 23L45 24L48 24L48 23L47 23L47 22L46 22L46 20L47 20L47 19L46 19L46 18L48 18L48 17L46 17L46 18L45 18L45 19L46 19L46 20L44 20L44 19L43 19L43 18L44 18L44 17L45 17L45 16L48 16L48 15L46 15L46 14L47 14L47 13L46 13L46 14L45 14L45 16L44 16L44 14L41 14L41 13L38 13L38 12L37 12L37 11L36 11L36 12L35 12L35 11L34 11L34 10L36 10L36 8L37 8L37 9L38 9L38 10L39 10L39 12L41 12L41 9L38 9L38 8L37 8L37 7L38 7L38 5L36 5L36 6L35 6L35 7L34 7L34 5L35 5L35 4L36 4L36 3L35 3L35 2L34 2L34 1L32 1L32 2L31 2L31 1L30 1L30 2L29 2L29 1ZM13 2L13 3L14 3L14 2ZM22 2L22 3L23 3L23 4L24 4L24 3L25 3L25 2L24 2L24 3L23 3L23 2ZM32 2L32 3L29 3L29 4L28 4L28 5L31 5L31 4L32 4L32 3L34 3L34 2ZM10 3L10 5L9 5L9 7L10 7L10 8L11 8L11 7L12 7L12 5L14 5L14 6L13 6L13 7L14 7L14 6L15 6L15 7L16 7L16 8L18 8L18 4L17 4L17 3L15 3L15 4L12 4L12 3ZM11 4L11 5L12 5L12 4ZM15 4L15 5L16 5L16 4ZM33 4L33 5L34 5L34 4ZM23 5L23 8L26 8L26 5ZM10 6L10 7L11 7L11 6ZM16 6L16 7L17 7L17 6ZM24 6L24 7L25 7L25 6ZM28 6L28 8L33 8L33 6L32 6L32 7L31 7L31 6L30 6L30 7L29 7L29 6ZM36 6L36 7L35 7L35 8L36 8L36 7L37 7L37 6ZM12 8L12 9L15 9L15 8ZM4 9L4 10L2 10L2 12L3 12L3 11L4 11L4 12L5 12L5 11L6 11L6 10L7 10L7 9L6 9L6 10L5 10L5 9ZM28 9L28 10L29 10L29 11L27 11L27 10L26 10L26 12L24 12L24 13L23 13L23 14L24 14L24 15L23 15L23 16L24 16L24 18L26 18L26 19L27 19L27 18L26 18L26 17L25 17L25 16L26 16L26 15L27 15L27 14L32 14L32 15L30 15L30 16L35 16L35 18L34 18L34 17L30 17L30 18L31 18L31 19L32 19L32 20L33 20L33 21L32 21L32 22L33 22L33 21L35 21L35 22L38 22L38 23L39 23L39 22L38 22L38 21L39 21L39 20L33 20L33 19L35 19L35 18L36 18L36 19L39 19L39 18L38 18L38 17L37 17L37 16L38 16L38 15L39 15L39 16L40 16L40 17L41 17L41 16L40 16L40 15L41 15L41 14L38 14L38 13L37 13L37 12L36 12L36 14L34 14L34 13L35 13L35 12L34 12L34 11L33 11L33 13L32 13L32 10L34 10L34 9L30 9L30 10L29 10L29 9ZM30 10L30 12L26 12L26 13L24 13L24 14L27 14L27 13L30 13L30 12L31 12L31 10ZM20 14L20 15L21 15L21 14ZM6 15L6 16L8 16L8 18L10 18L10 16L8 16L8 15ZM24 15L24 16L25 16L25 15ZM28 15L28 16L29 16L29 15ZM36 15L36 16L37 16L37 15ZM42 15L42 16L43 16L43 17L44 17L44 16L43 16L43 15ZM2 16L2 17L1 17L1 18L2 18L2 17L3 17L3 16ZM14 17L14 18L13 18L13 19L14 19L14 20L13 20L13 21L15 21L15 22L16 22L16 21L15 21L15 17ZM17 18L17 19L18 19L18 18ZM32 18L32 19L33 19L33 18ZM23 19L23 20L24 20L24 21L26 21L26 20L24 20L24 19ZM1 20L1 21L2 21L2 20ZM6 21L6 22L7 22L7 21ZM3 23L3 24L4 24L4 23ZM5 23L5 26L8 26L8 23ZM23 23L23 26L26 26L26 23ZM41 23L41 26L44 26L44 23ZM1 24L1 25L2 25L2 27L3 27L3 26L4 26L4 25L2 25L2 24ZM6 24L6 25L7 25L7 24ZM24 24L24 25L25 25L25 24ZM42 24L42 25L43 25L43 24ZM15 26L15 27L16 27L16 26ZM34 26L34 28L33 28L33 27L30 27L30 28L29 28L29 27L28 27L28 28L29 28L29 31L28 31L28 32L27 32L27 31L25 31L25 32L26 32L26 33L28 33L28 32L30 32L30 33L29 33L29 34L31 34L31 32L35 32L35 33L38 33L38 32L39 32L39 34L34 34L34 33L33 33L33 34L34 34L34 35L35 35L35 36L36 36L36 35L37 35L37 36L38 36L38 37L40 37L40 36L39 36L39 35L40 35L40 32L41 32L41 31L40 31L40 30L38 30L38 32L35 32L35 31L36 31L36 29L38 29L38 28L35 28L35 27L36 27L36 26ZM5 27L5 28L7 28L7 27ZM13 27L13 28L14 28L14 27ZM41 27L41 28L43 28L43 29L42 29L42 30L43 30L43 29L44 29L44 30L45 30L45 31L46 31L46 29L45 29L45 27ZM15 28L15 29L16 29L16 28ZM30 28L30 29L33 29L33 30L32 30L32 31L33 31L33 30L35 30L35 29L33 29L33 28ZM21 29L21 30L22 30L22 29ZM30 30L30 32L31 32L31 30ZM5 31L5 32L6 32L6 33L7 33L7 34L9 34L9 33L10 33L10 31L9 31L9 32L8 32L8 33L7 33L7 32L6 32L6 31ZM14 31L14 32L15 32L15 31ZM21 31L21 32L20 32L20 33L19 33L19 34L20 34L20 35L21 35L21 34L22 34L22 31ZM39 31L39 32L40 32L40 31ZM23 32L23 33L24 33L24 32ZM20 33L20 34L21 34L21 33ZM47 34L47 35L46 35L46 36L47 36L47 35L48 35L48 34ZM13 35L13 36L14 36L14 35ZM23 35L23 36L22 36L22 37L23 37L23 38L24 38L24 37L25 37L25 36L24 36L24 35ZM10 36L10 38L8 38L8 39L10 39L10 38L12 38L12 37L11 37L11 36ZM17 36L17 37L18 37L18 39L21 39L21 38L20 38L20 37L18 37L18 36ZM23 36L23 37L24 37L24 36ZM15 37L15 38L16 38L16 37ZM27 37L27 38L28 38L28 37ZM11 39L11 40L12 40L12 41L13 41L13 43L14 43L14 44L13 44L13 45L14 45L14 46L16 46L16 45L18 45L18 44L17 44L17 43L18 43L18 42L19 42L19 43L20 43L20 44L19 44L19 45L20 45L20 44L21 44L21 45L22 45L22 44L21 44L21 42L22 42L22 41L20 41L20 42L19 42L19 41L18 41L18 42L17 42L17 41L15 41L15 40L12 40L12 39ZM42 39L42 40L45 40L45 45L46 45L46 44L47 44L47 43L48 43L48 42L47 42L47 43L46 43L46 40L45 40L45 39ZM6 40L6 41L7 41L7 40ZM14 41L14 42L15 42L15 45L16 45L16 43L17 43L17 42L15 42L15 41ZM23 41L23 44L26 44L26 41ZM29 41L29 42L32 42L32 41ZM35 41L35 42L34 42L34 44L35 44L35 43L36 43L36 41ZM41 41L41 44L44 44L44 41ZM24 42L24 43L25 43L25 42ZM42 42L42 43L43 43L43 42ZM30 43L30 44L33 44L33 43ZM9 45L9 47L10 47L10 45ZM41 45L41 46L40 46L40 47L39 47L39 48L41 48L41 46L42 46L42 47L43 47L43 46L44 46L44 45L43 45L43 46L42 46L42 45ZM17 47L17 48L18 48L18 47ZM48 47L48 48L47 48L47 49L49 49L49 47ZM45 48L45 49L46 49L46 48ZM0 0L0 7L7 7L7 0ZM1 1L1 6L6 6L6 1ZM2 2L2 5L5 5L5 2ZM42 0L42 7L49 7L49 0ZM43 1L43 6L48 6L48 1ZM44 2L44 5L47 5L47 2ZM0 42L0 49L7 49L7 42ZM1 43L1 48L6 48L6 43ZM2 44L2 47L5 47L5 44Z" fill="#0076db"/></g></g></svg>
