<?xml version="1.0" encoding="UTF-8"?>
<svg xmlns="http://www.w3.org/2000/svg" version="1.1" width="1000" height="1000" viewBox="0 0 1000 1000"><rect x="0" y="0" width="1000" height="1000" fill="#ffffff"/><g transform="scale(18.868)"><g transform="translate(2,2)"><path fill-rule="evenodd" d="M10 0L10 1L8 1L8 2L9 2L9 3L8 3L8 4L9 4L9 5L8 5L8 7L9 7L9 6L10 6L10 8L6 8L6 9L5 9L5 8L0 8L0 9L2 9L2 10L1 10L1 13L0 13L0 16L2 16L2 15L3 15L3 16L4 16L4 17L1 17L1 18L0 18L0 19L1 19L1 20L0 20L0 21L1 21L1 20L2 20L2 21L4 21L4 22L3 22L3 23L4 23L4 24L2 24L2 22L1 22L1 24L2 24L2 25L0 25L0 26L1 26L1 28L0 28L0 29L2 29L2 30L3 30L3 29L5 29L5 30L6 30L6 31L4 31L4 32L3 32L3 31L1 31L1 32L2 32L2 33L4 33L4 36L3 36L3 35L2 35L2 36L3 36L3 37L4 37L4 38L5 38L5 39L7 39L7 40L6 40L6 41L8 41L8 43L9 43L9 44L8 44L8 49L9 49L9 48L11 48L11 49L12 49L12 48L13 48L13 49L14 49L14 48L15 48L15 49L17 49L17 48L18 48L18 49L22 49L22 48L20 48L20 47L18 47L18 45L22 45L22 46L21 46L21 47L22 47L22 46L23 46L23 47L25 47L25 48L23 48L23 49L25 49L25 48L26 48L26 49L28 49L28 48L29 48L29 47L28 47L28 48L26 48L26 47L27 47L27 46L26 46L26 45L27 45L27 44L29 44L29 46L31 46L31 47L30 47L30 49L32 49L32 48L31 48L31 47L32 47L32 45L30 45L30 44L29 44L29 43L30 43L30 42L31 42L31 44L33 44L33 43L34 43L34 44L35 44L35 46L33 46L33 47L34 47L34 48L33 48L33 49L40 49L40 48L41 48L41 49L42 49L42 48L43 48L43 47L44 47L44 46L46 46L46 47L45 47L45 49L49 49L49 47L48 47L48 48L46 48L46 47L47 47L47 46L48 46L48 45L49 45L49 42L47 42L47 41L46 41L46 40L45 40L45 39L47 39L47 40L49 40L49 38L46 38L46 37L47 37L47 36L49 36L49 34L47 34L47 32L46 32L46 31L45 31L45 32L43 32L43 30L42 30L42 29L41 29L41 28L39 28L39 29L40 29L40 30L41 30L41 31L40 31L40 32L39 32L39 30L38 30L38 31L37 31L37 32L36 32L36 33L35 33L35 34L34 34L34 33L32 33L32 32L35 32L35 31L36 31L36 29L38 29L38 28L35 28L35 27L37 27L37 26L38 26L38 27L45 27L45 28L43 28L43 29L47 29L47 31L48 31L48 32L49 32L49 30L48 30L48 29L49 29L49 26L47 26L47 25L49 25L49 22L48 22L48 20L46 20L46 19L47 19L47 18L46 18L46 17L49 17L49 14L48 14L48 13L47 13L47 12L48 12L48 11L49 11L49 10L48 10L48 8L47 8L47 10L48 10L48 11L47 11L47 12L46 12L46 13L41 13L41 12L42 12L42 10L43 10L43 11L44 11L44 12L45 12L45 11L46 11L46 8L45 8L45 11L44 11L44 8L43 8L43 9L42 9L42 8L41 8L41 6L40 6L40 7L39 7L39 5L38 5L38 4L37 4L37 3L36 3L36 2L39 2L39 4L40 4L40 3L41 3L41 0L40 0L40 1L38 1L38 0L35 0L35 1L32 1L32 0L30 0L30 1L25 1L25 0L23 0L23 1L22 1L22 0L21 0L21 1L22 1L22 2L21 2L21 3L20 3L20 2L18 2L18 4L17 4L17 3L16 3L16 4L15 4L15 5L14 5L14 7L13 7L13 4L12 4L12 3L13 3L13 1L12 1L12 3L10 3L10 1L11 1L11 0ZM14 0L14 1L15 1L15 0ZM19 0L19 1L20 1L20 0ZM30 1L30 2L29 2L29 3L27 3L27 2L26 2L26 4L29 4L29 5L27 5L27 8L28 8L28 9L26 9L26 10L24 10L24 11L23 11L23 10L22 10L22 6L21 6L21 4L24 4L24 3L25 3L25 2L24 2L24 3L23 3L23 2L22 2L22 3L21 3L21 4L18 4L18 5L19 5L19 9L18 9L18 10L17 10L17 9L16 9L16 8L18 8L18 6L17 6L17 4L16 4L16 5L15 5L15 8L14 8L14 9L13 9L13 10L12 10L12 9L10 9L10 10L9 10L9 9L8 9L8 10L7 10L7 9L6 9L6 10L7 10L7 11L6 11L6 12L8 12L8 13L6 13L6 14L7 14L7 15L4 15L4 16L7 16L7 17L4 17L4 18L3 18L3 19L4 19L4 21L5 21L5 22L8 22L8 21L9 21L9 23L12 23L12 22L13 22L13 24L14 24L14 25L13 25L13 26L14 26L14 25L15 25L15 24L17 24L17 21L18 21L18 22L19 22L19 25L18 25L18 26L17 26L17 25L16 25L16 26L15 26L15 27L16 27L16 28L17 28L17 29L13 29L13 30L14 30L14 33L16 33L16 34L11 34L11 32L10 32L10 31L9 31L9 30L10 30L10 28L11 28L11 30L12 30L12 28L11 28L11 25L9 25L9 28L8 28L8 27L4 27L4 25L2 25L2 26L3 26L3 27L2 27L2 28L3 28L3 27L4 27L4 28L5 28L5 29L6 29L6 30L7 30L7 31L6 31L6 32L4 32L4 33L5 33L5 35L6 35L6 36L7 36L7 35L6 35L6 34L8 34L8 37L5 37L5 36L4 36L4 37L5 37L5 38L7 38L7 39L8 39L8 40L9 40L9 43L10 43L10 44L9 44L9 47L10 47L10 46L12 46L12 45L11 45L11 43L13 43L13 44L14 44L14 43L13 43L13 42L14 42L14 41L15 41L15 44L18 44L18 42L19 42L19 44L21 44L21 43L22 43L22 40L21 40L21 39L24 39L24 40L26 40L26 39L27 39L27 40L28 40L28 41L27 41L27 42L28 42L28 43L29 43L29 42L30 42L30 41L29 41L29 40L30 40L30 39L31 39L31 41L33 41L33 42L34 42L34 43L35 43L35 44L39 44L39 45L38 45L38 46L37 46L37 45L36 45L36 47L35 47L35 48L37 48L37 47L38 47L38 48L40 48L40 47L41 47L41 46L42 46L42 47L43 47L43 46L44 46L44 45L43 45L43 46L42 46L42 45L41 45L41 46L39 46L39 45L40 45L40 44L39 44L39 43L36 43L36 42L35 42L35 40L34 40L34 39L33 39L33 40L32 40L32 39L31 39L31 38L28 38L28 39L27 39L27 38L26 38L26 37L25 37L25 36L26 36L26 35L27 35L27 34L28 34L28 35L29 35L29 34L30 34L30 35L31 35L31 34L32 34L32 35L34 35L34 36L31 36L31 37L32 37L32 38L35 38L35 37L36 37L36 36L37 36L37 37L38 37L38 38L36 38L36 40L37 40L37 41L38 41L38 42L40 42L40 41L38 41L38 40L40 40L40 38L39 38L39 37L38 37L38 36L37 36L37 34L35 34L35 35L34 35L34 34L32 34L32 33L31 33L31 34L30 34L30 33L29 33L29 32L32 32L32 31L33 31L33 30L35 30L35 29L33 29L33 28L34 28L34 26L37 26L37 25L38 25L38 26L39 26L39 25L38 25L38 24L37 24L37 23L38 23L38 22L39 22L39 23L40 23L40 22L41 22L41 21L40 21L40 20L41 20L41 19L43 19L43 20L44 20L44 21L43 21L43 22L44 22L44 21L46 21L46 24L48 24L48 23L47 23L47 21L46 21L46 20L44 20L44 19L46 19L46 18L44 18L44 17L46 17L46 16L48 16L48 15L46 15L46 14L47 14L47 13L46 13L46 14L45 14L45 15L46 15L46 16L43 16L43 18L42 18L42 15L44 15L44 14L41 14L41 13L38 13L38 12L37 12L37 11L38 11L38 10L42 10L42 9L41 9L41 8L40 8L40 9L36 9L36 12L35 12L35 11L34 11L34 10L35 10L35 9L33 9L33 8L34 8L34 5L35 5L35 4L36 4L36 3L35 3L35 2L34 2L34 3L33 3L33 2L31 2L31 1ZM30 2L30 3L29 3L29 4L30 4L30 5L29 5L29 6L28 6L28 8L29 8L29 9L30 9L30 10L26 10L26 11L25 11L25 12L23 12L23 13L24 13L24 14L23 14L23 16L22 16L22 13L21 13L21 12L18 12L18 11L20 11L20 9L21 9L21 6L20 6L20 9L19 9L19 10L18 10L18 11L16 11L16 9L14 9L14 10L13 10L13 11L12 11L12 10L11 10L11 11L10 11L10 12L9 12L9 11L8 11L8 12L9 12L9 13L8 13L8 15L9 15L9 18L6 18L6 19L5 19L5 21L7 21L7 20L6 20L6 19L8 19L8 20L10 20L10 21L13 21L13 22L14 22L14 21L13 21L13 20L14 20L14 19L12 19L12 17L14 17L14 18L16 18L16 17L19 17L19 18L20 18L20 19L17 19L17 20L16 20L16 21L15 21L15 22L16 22L16 21L17 21L17 20L18 20L18 21L21 21L21 20L22 20L22 23L21 23L21 24L20 24L20 25L21 25L21 26L22 26L22 28L21 28L21 27L20 27L20 28L19 28L19 26L18 26L18 27L17 27L17 26L16 26L16 27L17 27L17 28L18 28L18 29L21 29L21 30L22 30L22 28L24 28L24 27L25 27L25 29L23 29L23 30L25 30L25 31L26 31L26 32L25 32L25 33L23 33L23 32L24 32L24 31L21 31L21 32L18 32L18 31L19 31L19 30L18 30L18 31L17 31L17 30L16 30L16 31L15 31L15 32L16 32L16 33L17 33L17 34L16 34L16 35L15 35L15 37L17 37L17 38L18 38L18 39L14 39L14 40L13 40L13 41L11 41L11 42L13 42L13 41L14 41L14 40L15 40L15 41L16 41L16 40L18 40L18 41L17 41L17 42L18 42L18 41L21 41L21 40L20 40L20 39L21 39L21 38L24 38L24 39L25 39L25 37L22 37L22 36L23 36L23 35L24 35L24 36L25 36L25 35L24 35L24 34L25 34L25 33L26 33L26 32L27 32L27 33L28 33L28 32L29 32L29 31L30 31L30 30L33 30L33 29L31 29L31 28L33 28L33 26L31 26L31 25L32 25L32 24L33 24L33 25L37 25L37 24L34 24L34 23L35 23L35 22L38 22L38 21L39 21L39 20L33 20L33 19L32 19L32 20L33 20L33 21L35 21L35 22L33 22L33 23L32 23L32 24L31 24L31 25L30 25L30 26L29 26L29 27L28 27L28 28L29 28L29 27L30 27L30 26L31 26L31 28L30 28L30 30L29 30L29 31L28 31L28 32L27 32L27 31L26 31L26 28L27 28L27 25L28 25L28 24L30 24L30 22L31 22L31 19L29 19L29 18L28 18L28 16L29 16L29 17L30 17L30 18L32 18L32 16L33 16L33 17L34 17L34 16L33 16L33 15L38 15L38 16L35 16L35 18L34 18L34 19L35 19L35 18L36 18L36 19L37 19L37 18L38 18L38 17L39 17L39 18L40 18L40 17L41 17L41 16L40 16L40 15L41 15L41 14L38 14L38 13L37 13L37 12L36 12L36 14L34 14L34 13L35 13L35 12L34 12L34 11L32 11L32 10L31 10L31 8L33 8L33 6L32 6L32 3L31 3L31 2ZM9 3L9 4L10 4L10 3ZM30 3L30 4L31 4L31 3ZM11 4L11 5L10 5L10 6L11 6L11 8L13 8L13 7L12 7L12 6L11 6L11 5L12 5L12 4ZM33 4L33 5L34 5L34 4ZM23 5L23 8L26 8L26 5ZM30 5L30 6L29 6L29 7L30 7L30 6L31 6L31 7L32 7L32 6L31 6L31 5ZM36 5L36 6L35 6L35 7L36 7L36 8L39 8L39 7L38 7L38 5ZM16 6L16 7L17 7L17 6ZM24 6L24 7L25 7L25 6ZM36 6L36 7L37 7L37 6ZM3 9L3 10L2 10L2 11L3 11L3 10L4 10L4 11L5 11L5 10L4 10L4 9ZM30 10L30 11L29 11L29 12L28 12L28 11L26 11L26 12L25 12L25 14L27 14L27 16L26 16L26 15L24 15L24 16L23 16L23 17L22 17L22 20L25 20L25 21L24 21L24 22L27 22L27 21L29 21L29 22L28 22L28 23L27 23L27 24L28 24L28 23L29 23L29 22L30 22L30 21L29 21L29 20L27 20L27 19L26 19L26 18L27 18L27 16L28 16L28 15L29 15L29 16L31 16L31 15L32 15L32 14L30 14L30 13L34 13L34 12L32 12L32 11L31 11L31 10ZM11 11L11 13L10 13L10 16L11 16L11 17L10 17L10 18L11 18L11 17L12 17L12 16L11 16L11 13L12 13L12 11ZM13 11L13 12L14 12L14 11ZM30 11L30 12L29 12L29 13L28 13L28 14L29 14L29 13L30 13L30 12L31 12L31 11ZM40 11L40 12L41 12L41 11ZM2 12L2 13L1 13L1 15L2 15L2 13L4 13L4 14L5 14L5 13L4 13L4 12ZM15 12L15 13L13 13L13 14L14 14L14 17L16 17L16 15L17 15L17 16L19 16L19 17L20 17L20 18L21 18L21 17L20 17L20 16L21 16L21 13L18 13L18 12L17 12L17 13L16 13L16 12ZM15 13L15 14L16 14L16 13ZM17 13L17 14L18 14L18 15L19 15L19 14L18 14L18 13ZM24 16L24 17L23 17L23 19L25 19L25 18L26 18L26 16ZM39 16L39 17L40 17L40 16ZM24 17L24 18L25 18L25 17ZM36 17L36 18L37 18L37 17ZM1 18L1 19L2 19L2 18ZM43 18L43 19L44 19L44 18ZM48 18L48 19L49 19L49 18ZM10 19L10 20L11 20L11 19ZM20 19L20 20L21 20L21 19ZM26 20L26 21L27 21L27 20ZM5 23L5 26L8 26L8 23ZM14 23L14 24L15 24L15 23ZM23 23L23 26L26 26L26 23ZM41 23L41 26L44 26L44 23ZM6 24L6 25L7 25L7 24ZM24 24L24 25L25 25L25 24ZM42 24L42 25L43 25L43 24ZM13 27L13 28L14 28L14 27ZM46 27L46 28L47 28L47 27ZM6 28L6 29L7 29L7 28ZM7 31L7 32L6 32L6 33L8 33L8 32L9 32L9 35L11 35L11 36L12 36L12 37L11 37L11 38L10 38L10 37L8 37L8 39L9 39L9 40L12 40L12 39L11 39L11 38L12 38L12 37L13 37L13 38L14 38L14 37L13 37L13 36L14 36L14 35L11 35L11 34L10 34L10 32L9 32L9 31ZM12 31L12 33L13 33L13 31ZM16 31L16 32L17 32L17 31ZM41 31L41 32L40 32L40 35L39 35L39 36L40 36L40 37L41 37L41 36L40 36L40 35L41 35L41 33L42 33L42 31ZM21 32L21 33L18 33L18 34L19 34L19 35L16 35L16 36L20 36L20 35L21 35L21 36L22 36L22 35L23 35L23 34L21 34L21 33L22 33L22 32ZM45 32L45 33L44 33L44 35L42 35L42 38L45 38L45 37L43 37L43 36L45 36L45 35L46 35L46 36L47 36L47 35L46 35L46 32ZM0 33L0 34L1 34L1 33ZM38 33L38 34L39 34L39 33ZM0 35L0 36L1 36L1 35ZM35 35L35 36L36 36L36 35ZM27 36L27 37L29 37L29 36ZM1 37L1 40L0 40L0 41L3 41L3 40L4 40L4 39L2 39L2 37ZM18 37L18 38L19 38L19 39L18 39L18 40L19 40L19 39L20 39L20 38L21 38L21 37ZM38 38L38 39L39 39L39 38ZM28 39L28 40L29 40L29 39ZM42 39L42 40L44 40L44 39ZM23 41L23 44L26 44L26 41ZM28 41L28 42L29 42L29 41ZM41 41L41 44L44 44L44 41ZM45 41L45 45L46 45L46 46L47 46L47 45L46 45L46 44L47 44L47 43L46 43L46 41ZM20 42L20 43L21 43L21 42ZM24 42L24 43L25 43L25 42ZM42 42L42 43L43 43L43 42ZM13 45L13 46L14 46L14 47L15 47L15 46L17 46L17 45ZM23 45L23 46L25 46L25 47L26 47L26 46L25 46L25 45ZM38 46L38 47L39 47L39 46ZM11 47L11 48L12 48L12 47ZM16 47L16 48L17 48L17 47ZM0 0L0 7L7 7L7 0ZM1 1L1 6L6 6L6 1ZM2 2L2 5L5 5L5 2ZM42 0L42 7L49 7L49 0ZM43 1L43 6L48 6L48 1ZM44 2L44 5L47 5L47 2ZM0 42L0 49L7 49L7 42ZM1 43L1 48L6 48L6 43ZM2 44L2 47L5 47L5 44Z" fill="#0076db"/></g></g></svg>
