<?xml version="1.0" encoding="UTF-8"?>
<svg id="a" data-name="Layer 1" xmlns="http://www.w3.org/2000/svg" viewBox="0 0 376.3 669.1">
  <path d="M188.15,0C84.24,0,0,84.24,0,188.15c0,.09,0,.18,0,.27-.52,164.97,187.79,480.09,188.14,480.68h0s0,0,0,0h0s0,0,0,0c.36-.6,188.87-316.05,188.15-480.95C376.3,84.24,292.06,0,188.15,0ZM188.15,361.42c-95.14,0-172.27-77.13-172.27-172.27S93.01,16.88,188.15,16.88s172.27,77.13,172.27,172.27-77.13,172.27-172.27,172.27Z" style="fill: #be1e2d; stroke-width: 0px;"/>
  <g>
    <path d="M240.03,130.2c-3.9-3.46-8.44-5.87-13.87-7.38h-.05c-5.84-1.68-14.56-2.53-25.91-2.53h-40.79c-5.05,0-8.69.9-10.52,2.61-1.67,1.56-2.59,5.06-2.59,9.86v120.98c0,4.46.87,7.69,2.58,9.59,1.59,1.76,3.55,2.55,6.35,2.55,2.6,0,4.5-.81,6.16-2.64,1.76-1.93,2.66-5.2,2.66-9.72v-51.45h36.14c17.7,0,30.99-3.61,39.5-10.73,8.25-6.9,12.26-17.03,12.26-30.96,0-6.55-1.05-12.47-3.13-17.6-2.03-5.02-4.91-9.14-8.8-12.58ZM228.43,179.22c-3.53,4.78-8.6,8.22-15.06,10.23-5.68,1.77-12.71,2.67-20.88,2.67h-28.43v-62.01h28.43c16.31,0,27.16,2.96,33.16,9.05l.13.13c5.3,5.68,7.99,12.98,7.99,21.71,0,7.29-1.8,13.41-5.34,18.2Z" style="fill: #be1e2d; stroke-width: 0px;"/>
    <path d="M188.15,78.67c-61.01,0-110.48,49.46-110.48,110.48s49.46,110.48,110.48,110.48,110.48-49.46,110.48-110.48-49.46-110.48-110.48-110.48ZM244.2,196.73c-9.85,8.24-24.52,12.37-44,12.37h-29.12v44.43c0,6.35-1.5,11.17-4.5,14.45-3,3.28-6.78,4.92-11.35,4.92s-8.64-1.62-11.56-4.87c-2.93-3.25-4.39-8.01-4.39-14.29v-120.98c0-6.99,1.61-11.99,4.82-14.99,3.21-3,8.31-4.5,15.31-4.5h40.79c12.06,0,21.34.93,27.84,2.78,6.42,1.78,11.97,4.75,16.65,8.89,4.67,4.14,8.23,9.21,10.65,15.2,2.43,6,3.64,12.74,3.64,20.23,0,15.99-4.92,28.1-14.77,36.35Z" style="fill: #be1e2d; stroke-width: 0px;"/>
    <path d="M192.49,137.15h-21.41v47.96h21.41c7.49,0,13.76-.78,18.79-2.36,5.03-1.57,8.87-4.14,11.51-7.71,2.64-3.57,3.96-8.24,3.96-14.02,0-6.92-2.03-12.56-6.1-16.92-4.57-4.64-13.95-6.96-28.16-6.96Z" style="fill: #be1e2d; stroke-width: 0px;"/>
  </g>
</svg>